<svg width="277" height="246" viewBox="0 0 277 246" fill="none" xmlns="http://www.w3.org/2000/svg">
<g filter="url(#filter0_ii)">
<path d="M52.1722 101.701C53.4326 102.991 54.6108 104.103 55.7138 105.052C69.4079 116.83 56.2743 77.6873 69.4341 65.3145C81.9811 53.5177 111.479 50.3292 111.479 81.4046C111.479 107.343 125.204 103.78 120.846 76.4924C116.489 49.2048 138.891 48.5461 148.977 57.475C159.062 66.4038 148.398 91.6165 156.218 94.056C164.037 96.4955 168.261 87.7404 164.351 42.872C160.442 -1.99636 197.491 -8.34533 208.251 12.1726C219.011 32.6905 206.326 52.423 200.585 64.2488C194.844 76.0746 186.56 102.03 214.035 89.8961C241.51 77.7625 257.761 73.5055 267.846 82.4344C277.931 91.3633 279.542 104.736 259.361 109.633C239.18 114.529 208.251 124.157 234.446 143.457C286.837 182.058 242.985 211.084 225.301 216.945C189.853 228.695 188.999 181.508 176.063 188.291C163.128 195.075 160.675 196.361 155.214 216.855C149.754 237.349 124.451 239.528 121.423 216.945C118.396 194.363 93.4578 180.427 92.2044 202.98C90.951 225.533 67.8559 254.728 47.1084 241.7C31.3209 231.786 51.9243 205.336 59.3355 198.322C66.7467 191.307 60.71 187.562 52.1722 191.134C41.4454 195.622 42.0759 194.817 30.5668 194.817C9.85054 194.817 2.02409 166.734 25.96 155.826C37.9221 150.374 51.2025 162.208 59.6338 155.512C68.065 148.816 58.5956 128.053 48.8738 134.994C8.92937 163.512 -10.4055 115.295 8.0091 97.2191C18.6719 86.7523 28.8439 77.8218 52.1722 101.701Z" fill="#F4F1EA"/>
</g>
<path d="M52.1722 101.701C53.4326 102.991 54.6108 104.103 55.7138 105.052C69.4079 116.83 56.2743 77.6873 69.4341 65.3145C81.9811 53.5177 111.479 50.3292 111.479 81.4046C111.479 107.343 125.204 103.78 120.846 76.4924C116.489 49.2048 138.891 48.5461 148.977 57.475C159.062 66.4038 148.398 91.6165 156.218 94.056C164.037 96.4955 168.261 87.7404 164.351 42.872C160.442 -1.99636 197.491 -8.34533 208.251 12.1726C219.011 32.6905 206.326 52.423 200.585 64.2488C194.844 76.0746 186.56 102.03 214.035 89.8961C241.51 77.7625 257.761 73.5055 267.846 82.4344C277.931 91.3633 279.542 104.736 259.361 109.633C239.18 114.529 208.251 124.157 234.446 143.457C286.837 182.058 242.985 211.084 225.301 216.945C189.853 228.695 188.999 181.508 176.063 188.291C163.128 195.075 160.675 196.361 155.214 216.855C149.754 237.349 124.451 239.528 121.423 216.945C118.396 194.363 93.4578 180.427 92.2044 202.98C90.951 225.533 67.8559 254.728 47.1084 241.7C31.3209 231.786 51.9243 205.336 59.3355 198.322C66.7467 191.307 60.71 187.562 52.1722 191.134C41.4454 195.622 42.0759 194.817 30.5668 194.817C9.85054 194.817 2.02409 166.734 25.96 155.826C37.9221 150.374 51.2025 162.208 59.6338 155.512C68.065 148.816 58.5956 128.053 48.8738 134.994C8.92937 163.512 -10.4055 115.295 8.0091 97.2191C18.6719 86.7523 28.8439 77.8218 52.1722 101.701Z" stroke="#001ECB" stroke-width="1.84146"/>
<path d="M90.836 123.679V119.615H83.028V115.519H88.66V111.359H83.028V107.327H89.876V103.263H78.164V123.679H90.836ZM118.095 123.679L111.567 113.183L117.775 103.263H112.655L110.095 107.391C109.711 107.999 109.263 108.799 108.943 109.439H108.879C108.559 108.767 108.111 107.999 107.727 107.391L105.167 103.263H99.759L105.999 113.311L99.439 123.679H104.559L107.375 119.231C107.791 118.559 108.303 117.727 108.655 116.991H108.719C109.103 117.759 109.583 118.591 109.967 119.231L112.687 123.679H118.095ZM143.07 107.327V103.263H126.398V107.327H132.254V123.679H137.214V107.327H143.07ZM169.411 123.679L162.915 114.559C164.643 113.759 166.051 111.807 166.051 109.439C166.051 105.599 162.947 103.263 159.459 103.263H152.003V123.679H156.771V115.647H158.083L163.555 123.679H169.411ZM161.283 109.567C161.283 111.135 160.003 111.839 158.723 111.839H156.771V107.263H158.723C160.003 107.263 161.283 108.031 161.283 109.567ZM195.312 123.679L187.28 103.103H183.856L175.824 123.679H180.496L182.192 119.071H188.688L190.384 123.679H195.312ZM187.44 115.199H183.44L184.816 111.423C185.008 110.911 185.232 110.207 185.392 109.535H185.456C185.616 110.207 185.872 110.879 186.064 111.423L187.44 115.199ZM209.965 103.263H204.685L205.325 116.703L209.325 117.535L209.965 103.263ZM210.061 121.471C210.061 120.639 208.269 118.847 207.405 118.847C206.541 118.847 204.749 120.639 204.749 121.471C204.749 122.335 206.541 124.127 207.405 124.127C208.269 124.127 210.061 122.335 210.061 121.471Z" fill="#001ECB"/>
<path d="M90.836 154.064V150H83.028V145.904H88.66V141.744H83.028V137.712H89.876V133.648H78.164V154.064H90.836ZM118.095 154.064L111.567 143.568L117.775 133.648H112.655L110.095 137.776C109.711 138.384 109.263 139.184 108.943 139.824H108.879C108.559 139.152 108.111 138.384 107.727 137.776L105.167 133.648H99.759L105.999 143.696L99.439 154.064H104.559L107.375 149.616C107.791 148.944 108.303 148.112 108.655 147.376H108.719C109.103 148.144 109.583 148.976 109.967 149.616L112.687 154.064H118.095ZM143.07 137.712V133.648H126.398V137.712H132.254V154.064H137.214V137.712H143.07ZM169.411 154.064L162.915 144.944C164.643 144.144 166.051 142.192 166.051 139.824C166.051 135.984 162.947 133.648 159.459 133.648H152.003V154.064H156.771V146.032H158.083L163.555 154.064H169.411ZM161.283 139.952C161.283 141.52 160.003 142.224 158.723 142.224H156.771V137.648H158.723C160.003 137.648 161.283 138.416 161.283 139.952ZM195.312 154.064L187.28 133.488H183.856L175.824 154.064H180.496L182.192 149.456H188.688L190.384 154.064H195.312ZM187.44 145.584H183.44L184.816 141.808C185.008 141.296 185.232 140.592 185.392 139.92H185.456C185.616 140.592 185.872 141.264 186.064 141.808L187.44 145.584ZM209.965 133.648H204.685L205.325 147.088L209.325 147.92L209.965 133.648ZM210.061 151.856C210.061 151.024 208.269 149.232 207.405 149.232C206.541 149.232 204.749 151.024 204.749 151.856C204.749 152.72 206.541 154.512 207.405 154.512C208.269 154.512 210.061 152.72 210.061 151.856Z" fill="#001ECB"/>
<path d="M90.836 184.448V180.384H83.028V176.288H88.66V172.128H83.028V168.096H89.876V164.032H78.164V184.448H90.836ZM118.095 184.448L111.567 173.952L117.775 164.032H112.655L110.095 168.16C109.711 168.768 109.263 169.568 108.943 170.208H108.879C108.559 169.536 108.111 168.768 107.727 168.16L105.167 164.032H99.759L105.999 174.08L99.439 184.448H104.559L107.375 180C107.791 179.328 108.303 178.496 108.655 177.76H108.719C109.103 178.528 109.583 179.36 109.967 180L112.687 184.448H118.095ZM143.07 168.096V164.032H126.398V168.096H132.254V184.448H137.214V168.096H143.07ZM169.411 184.448L162.915 175.328C164.643 174.528 166.051 172.576 166.051 170.208C166.051 166.368 162.947 164.032 159.459 164.032H152.003V184.448H156.771V176.416H158.083L163.555 184.448H169.411ZM161.283 170.336C161.283 171.904 160.003 172.608 158.723 172.608H156.771V168.032H158.723C160.003 168.032 161.283 168.8 161.283 170.336ZM195.312 184.448L187.28 163.872H183.856L175.824 184.448H180.496L182.192 179.84H188.688L190.384 184.448H195.312ZM187.44 175.968H183.44L184.816 172.192C185.008 171.68 185.232 170.976 185.392 170.304H185.456C185.616 170.976 185.872 171.648 186.064 172.192L187.44 175.968ZM209.965 164.032H204.685L205.325 177.472L209.325 178.304L209.965 164.032ZM210.061 182.24C210.061 181.408 208.269 179.616 207.405 179.616C206.541 179.616 204.749 181.408 204.749 182.24C204.749 183.104 206.541 184.896 207.405 184.896C208.269 184.896 210.061 183.104 210.061 182.24Z" fill="#001ECB"/>
<path d="M196.196 13.8903C199.112 16.1921 204.943 23.65 204.943 35.0671C206.938 29.3892 207.982 17.2049 196.196 13.8903Z" fill="#001ECB"/>
<path d="M140.031 57.1647C142.947 59.4665 148.778 66.9244 148.778 78.3415C150.773 72.6637 151.817 60.4793 140.031 57.1647Z" fill="#001ECB"/>
<path d="M267.552 95.3751C263.869 85.7995 253.741 84.0194 249.138 84.3263C250.519 78.3415 263.869 84.3263 266.632 88.9301C268.841 92.613 268.166 94.7613 267.552 95.3751Z" fill="#001ECB"/>
<path d="M105.964 75.3321C102.282 65.7565 92.1535 63.9764 87.5498 64.2833C88.9309 58.2985 102.282 64.2833 105.044 68.887C107.253 72.57 106.578 74.7183 105.964 75.3321Z" fill="#001ECB"/>
<path d="M188.37 82.9451C188.002 77.0525 190.211 68.5204 191.593 65.4513C195.276 58.5458 196.843 61.3946 195.275 64.5305C193.434 68.2135 188.83 90.311 188.37 82.9451Z" fill="#001ECB"/>
<path d="M243.995 159.529C248.423 163.436 252.893 171.032 254.087 174.178C256.365 181.665 253.242 180.76 252.133 177.434C250.831 173.527 238.461 154.647 243.995 159.529Z" fill="#001ECB"/>
<path d="M31.1321 93.4704C28.4056 91.8155 23.3779 91.7247 21.3386 92.1846C16.5235 93.703 17.2943 95.6711 19.4398 95.0694C21.9595 94.3627 34.5401 95.5389 31.1321 93.4704Z" fill="#001ECB"/>
<defs>
<filter id="filter0_ii" x="-3.60383" y="-5.44437" width="285.152" height="253.13" filterUnits="userSpaceOnUse" color-interpolation-filters="sRGB">
<feFlood flood-opacity="0" result="BackgroundImageFix"/>
<feBlend mode="normal" in="SourceGraphic" in2="BackgroundImageFix" result="shape"/>
<feColorMatrix in="SourceAlpha" type="matrix" values="0 0 0 0 0 0 0 0 0 0 0 0 0 0 0 0 0 0 127 0" result="hardAlpha"/>
<feOffset dx="5.52439" dy="-5.52439"/>
<feGaussianBlur stdDeviation="3.22256"/>
<feComposite in2="hardAlpha" operator="arithmetic" k2="-1" k3="1"/>
<feColorMatrix type="matrix" values="0 0 0 0 0 0 0 0 0 0 0 0 0 0 0 0 0 0 0.25 0"/>
<feBlend mode="normal" in2="shape" result="effect1_innerShadow"/>
<feColorMatrix in="SourceAlpha" type="matrix" values="0 0 0 0 0 0 0 0 0 0 0 0 0 0 0 0 0 0 127 0" result="hardAlpha"/>
<feOffset dx="-3.68293" dy="1.84146"/>
<feGaussianBlur stdDeviation="1.84146"/>
<feComposite in2="hardAlpha" operator="arithmetic" k2="-1" k3="1"/>
<feColorMatrix type="matrix" values="0 0 0 0 0 0 0 0 0 0 0 0 0 0 0 0 0 0 0.15 0"/>
<feBlend mode="normal" in2="effect1_innerShadow" result="effect2_innerShadow"/>
</filter>
</defs>
</svg>
